<?xml version="1.0" standalone="no"?>
<!DOCTYPE svg PUBLIC "-//W3C//DTD SVG 20010904//EN"
        "http://www.w3.org/TR/2001/REC-SVG-20010904/DTD/svg10.dtd">
<svg version="1.0" xmlns="http://www.w3.org/2000/svg"
     width="512.000000pt" height="512.000000pt" viewBox="0 0 512.000000 512.000000"
     preserveAspectRatio="xMidYMid meet">
    <metadata>
        Created by potrace 1.14, written by Peter Selinger 2001-2017
    </metadata>
    <g transform="translate(0.000000,512.000000) scale(0.100000,-0.100000)"
       fill="#000000" stroke="none">
        <path d="M2330 4938 c-338 -200 -516 -306 -1474 -868 -360 -212 -655 -387
-655 -390 0 -3 58 -39 129 -80 71 -41 130 -78 130 -82 0 -4 -14 -22 -31 -40
-43 -47 -96 -145 -109 -203 -8 -35 -12 -280 -12 -817 0 -423 -3 -768 -8 -768
-21 0 -112 -84 -137 -127 -21 -36 -28 -62 -29 -111 -5 -119 47 -207 153 -259
45 -21 63 -25 120 -21 77 5 126 25 178 74 113 107 103 301 -22 398 -25 20 -52
36 -58 36 -7 0 -14 8 -16 18 -3 9 -4 357 -3 772 l0 756 26 54 c23 51 55 89
103 124 24 17 28 13 -68 69 l-78 45 33 24 c67 50 159 78 303 92 33 4 71 8 85
11 14 2 50 7 81 10 31 3 65 7 75 9 11 2 48 7 84 10 36 4 76 8 90 11 14 2 47 7
74 9 27 3 83 10 125 15 42 6 103 13 136 16 33 4 67 8 75 10 8 2 42 7 75 10 33
4 71 8 85 10 14 2 50 7 80 10 30 3 107 13 170 21 166 21 264 33 330 40 25 2
55 6 68 9 52 9 160 20 201 20 35 -1 48 -6 67 -28 55 -64 12 -139 -86 -151 -94
-12 -112 -14 -214 -26 -54 -6 -106 -13 -115 -15 -9 -1 -47 -6 -84 -10 -37 -3
-77 -8 -87 -10 -10 -2 -45 -6 -77 -10 -71 -7 -139 -15 -173 -20 -21 -3 -267
-34 -400 -50 -92 -11 -146 -18 -162 -20 -9 -2 -48 -7 -85 -10 -37 -4 -75 -9
-84 -10 -16 -3 -191 -25 -239 -30 -14 -1 -50 -6 -80 -10 -77 -11 -92 -12 -116
-14 -11 0 -28 -7 -38 -14 -17 -12 0 -24 165 -122 101 -59 272 -159 379 -222
107 -64 209 -123 225 -133 17 -9 91 -53 165 -97 74 -44 151 -90 170 -101 19
-10 132 -77 250 -147 118 -70 233 -137 255 -150 22 -12 113 -66 202 -119 l162
-96 148 86 c169 99 850 500 1433 844 217 128 500 294 627 369 128 75 233 138
233 141 0 3 -17 14 -38 26 -20 11 -154 89 -297 174 -143 84 -273 161 -290 170
-16 10 -302 179 -635 375 -333 196 -721 425 -863 509 -141 83 -270 159 -285
168 -15 9 -29 17 -32 16 -3 0 -142 -81 -310 -180z"/>
        <path d="M848 3068 c-2 -7 -3 -233 -2 -503 l2 -490 26 -70 c115 -305 494 -544
1071 -675 44 -10 96 -21 115 -24 19 -3 44 -8 56 -10 19 -4 44 -7 152 -21 147
-18 411 -22 621 -11 69 4 127 9 130 10 3 2 33 7 66 10 33 4 67 9 75 11 8 3 31
7 50 9 110 14 339 77 514 142 313 116 557 299 654 489 55 108 56 122 57 653 0
270 -3 492 -7 492 -4 0 -67 -35 -140 -78 -73 -43 -227 -134 -343 -202 -115
-67 -223 -131 -240 -142 -80 -51 -609 -358 -616 -358 -5 0 -9 -4 -9 -10 0 -5
-4 -10 -9 -10 -5 0 -67 -34 -137 -76 -71 -42 -149 -88 -174 -102 -25 -14 -54
-31 -65 -38 -11 -8 -35 -14 -53 -14 -35 0 -58 12 -382 205 -85 51 -171 102
-190 113 -19 11 -84 48 -143 83 -60 35 -121 71 -136 80 -15 9 -156 92 -312
185 -156 92 -293 172 -304 178 -11 6 -86 51 -167 99 -80 48 -149 87 -151 87
-3 0 -7 -6 -9 -12z"/>
        <path d="M280 787 c-113 -371 -169 -551 -216 -701 -14 -43 -24 -80 -22 -81 3
-3 528 171 532 177 2 1 -10 71 -25 153 -16 83 -37 202 -48 265 -12 63 -23 126
-26 140 -8 39 -55 298 -70 389 -2 13 -6 25 -7 27 -2 1 -55 -165 -118 -369z"/>
    </g>
</svg>
